PathFileType	4	(X/Y/Z)	./resultDataOpenSim/trcMotMarkerGrf/sub10/qtm-12-01.trc
DataRate	CameraRate	NumFrames	NumMarkers	Units	OrigDataRate	OrigDataStartFrame	OrigNumFrames
250.000000	250.000000	14	24	m	250.000000	59	465
Frame#	Time	L.Toe.Tip			R.Toe.Tip			L.Ankle.Lat			R.Ankle.Lat			L.Ankle.Med			R.Ankle.Med			L.Heel			R.Heel			L.Knee.Lat			R.Knee.Lat			L.Knee.Med			R.Knee.Med			L.Thigh.Upper			R.Thigh.Upper			L.ASIS			R.ASIS			V.Sacral			L.Acromium			R.Acromium			C7			L.Elbow			R.Elbow			L.Wrist.Lat			R.Wrist.Lat
		X1	Y1	Z1	X2	Y2	Z2	X3	Y3	Z3	X4	Y4	Z4	X5	Y5	Z5	X6	Y6	Z6	X7	Y7	Z7	X8	Y8	Z8	X9	Y9	Z9	X10	Y10	Z10	X11	Y11	Z11	X12	Y12	Z12	X13	Y13	Z13	X14	Y14	Z14	X15	Y15	Z15	X16	Y16	Z16	X17	Y17	Z17	X18	Y18	Z18	X19	Y19	Z19	X20	Y20	Z20	X21	Y21	Z21	X22	Y22	Z22	X23	Y23	Z23	X24	Y24	Z24

59	0.232	-1.504203	0.049214266	-0.20918596	-0.80122007	0.039162316	-0.089954406	-1.5301761	0.1747446	-0.26797079	-0.93757555	0.051103686	-0.04802341	-1.5055902	0.18177231	-0.18896158	-0.92607193	0.082218408	-0.13164998	-1.5823827	0.21882478	-0.22746011	-0.99197485	0.028429002	-0.096048348	-1.2435064	0.43258162	-0.29288174	-0.95583836	0.44856308	-0.0037383128	-1.224636	0.39125339	-0.18141767	-0.96228623	0.46080362	-0.12979619	-1.1376681	0.80517089	-0.31919803	-1.0623459	0.85312832	0.060335852	-1.0552475	0.90792453	-0.26529754	-1.0154085	0.94046534	-0.028380558	-1.2288165	0.94631543	-0.10803906	-1.0709697	1.3967261	-0.28764102	-1.1340762	1.3921387	0.027262307	-1.1832234	1.4252342	-0.14809614	-1.1178842	1.0423241	-0.32839127	-1.3014452	1.0969662	0.036139207	-0.87834574	0.96817007	-0.2869239	-1.2850561	0.86916556	0.12684495
60	0.236	-1.4992252	0.051541492	-0.20991112	-0.8011776	0.039080192	-0.089935553	-1.5210297	0.1779739	-0.26915006	-0.93757305	0.051099576	-0.047988479	-1.4985194	0.18456059	-0.18949414	-0.92604747	0.082218572	-0.13162602	-1.5716916	0.22334389	-0.22940077	-0.99198352	0.028423301	-0.095961738	-1.2321244	0.4320909	-0.29393411	-0.95281206	0.44878357	-0.0035348158	-1.2129215	0.39016817	-0.18262556	-0.95981788	0.46083409	-0.12951317	-1.130694	0.80550188	-0.31869205	-1.057604	0.85424589	0.060968868	-1.0488665	0.90866021	-0.26451951	-1.0098984	0.94163652	-0.027764732	-1.2230167	0.94724308	-0.10812169	-1.0651827	1.3978623	-0.28696602	-1.1280711	1.3931411	0.027925638	-1.1772488	1.4261502	-0.14721445	-1.1129999	1.043843	-0.32860091	-1.2945263	1.0974378	0.036640942	-0.87420257	0.96740748	-0.28674868	-1.2774629	0.86958176	0.12728658
61	0.24	-1.4936657	0.053921122	-0.21076705	-0.801136	0.039011796	-0.089900871	-1.5116279	0.1811869	-0.27024551	-0.93758195	0.051098128	-0.0479427	-1.4906284	0.18735841	-0.1901086	-0.9260043	0.082246328	-0.13158225	-1.5612797	0.22768699	-0.23081698	-0.99198938	0.028418705	-0.095882162	-1.2207556	0.43164211	-0.2949258	-0.95010622	0.44901409	-0.0031878953	-1.201191	0.38939667	-0.18370528	-0.95747104	0.4608574	-0.12914822	-1.1237393	0.80593921	-0.31821769	-1.053044	0.85529602	0.061568766	-1.0425644	0.90941816	-0.26384805	-1.0044352	0.94277405	-0.027112064	-1.2173174	0.94816211	-0.10825825	-1.0594256	1.3989797	-0.28633684	-1.1220658	1.3941468	0.028582283	-1.1714242	1.4272505	-0.14642832	-1.1081276	1.0453432	-0.32881191	-1.2875628	1.0979076	0.037261044	-0.87007133	0.96656633	-0.28667857	-1.2697909	0.86999596	0.1277439
62	0.244	-1.4873099	0.056382076	-0.21183456	-0.80108593	0.038946002	-0.08985672	-1.5021171	0.18434689	-0.27123438	-0.93758693	0.051100505	-0.047894335	-1.481097	0.19026726	-0.19107973	-0.92591768	0.08229601	-0.1315244	-1.5516274	0.23177625	-0.23156636	-0.99198899	0.028416363	-0.095815283	-1.2095186	0.43124585	-0.29586668	-0.94775287	0.44926776	-0.0027089704	-1.1894116	0.38894766	-0.18469678	-0.95522389	0.46088225	-0.12871909	-1.1167813	0.80647341	-0.31777358	-1.0485923	0.85626844	0.062138928	-1.0363876	0.91019095	-0.26329361	-0.99900689	0.94387252	-0.026421174	-1.2117176	0.94905208	-0.10843682	-1.0536922	1.4000809	-0.28574831	-1.1160733	1.3951541	0.029246203	-1.1656828	1.4284663	-0.14570113	-1.1032697	1.0468219	-0.32903295	-1.2805738	1.0983744	0.037964556	-0.86598733	0.96565259	-0.28673888	-1.2620636	0.87039302	0.12819993
63	0.248	-1.4799746	0.058969797	-0.21314757	-0.80103079	0.038879146	-0.089817892	-1.4927498	0.18743259	-0.27206695	-0.9375887	0.051105721	-0.047846286	-1.4698986	0.19331288	-0.19243473	-0.92578125	0.082359355	-0.13146077	-1.5423792	0.23553302	-0.23191865	-0.99198321	0.028414121	-0.095759709	-1.1983432	0.43092712	-0.29677625	-0.94573252	0.44954376	-0.0021319308	-1.1776529	0.38879923	-0.18560692	-0.95308248	0.46093483	-0.12824908	-1.1098189	0.80709087	-0.31734946	-1.044156	0.85716057	0.062699366	-1.0303957	0.91099311	-0.26287321	-0.99355765	0.94493162	-0.025704601	-1.206205	0.94990171	-0.10866332	-1.0479778	1.4011642	-0.28519413	-1.1100669	1.3961725	0.02989162	-1.1599564	1.4297076	-0.14502335	-1.0984249	1.0482769	-0.32925881	-1.273585	1.0988265	0.038721746	-0.86197001	0.96467127	-0.28693764	-1.2543048	0.87076261	0.12864478
64	0.252	-1.4715644	0.061703292	-0.21467008	-0.80097736	0.038815093	-0.089795789	-1.4835655	0.19045633	-0.27272154	-0.9375985	0.051111869	-0.047797924	-1.4581143	0.19634626	-0.19384318	-0.92560638	0.082427459	-0.13140007	-1.5329522	0.23889741	-0.2322474	-0.99197735	0.028409995	-0.095713321	-1.1871162	0.43070784	-0.29767274	-0.94395058	0.44981757	-0.0015051042	-1.1659901	0.38892307	-0.18642731	-0.9510282	0.46103349	-0.12776063	-1.1028622	0.80777347	-0.31693366	-1.0396379	0.85799305	0.063281778	-1.0246023	0.91187036	-0.26258591	-0.98800622	0.94594991	-0.024998691	-1.2007565	0.95071416	-0.10893746	-1.0422781	1.4022283	-0.28467095	-1.1040061	1.397201	0.030495359	-1.1542048	1.4309189	-0.1443844	-1.0935955	1.0497128	-0.32949512	-1.2666172	1.0992517	0.039513699	-0.85801912	0.96362543	-0.28726391	-1.2464983	0.87111945	0.12909039
65	0.256	-1.4620996	0.064518966	-0.21632744	-0.8009309	0.038759101	-0.089792497	-1.4742916	0.19343505	-0.27323249	-0.9376212	0.051118534	-0.047749118	-1.4468411	0.19918767	-0.19493911	-0.92541244	0.082494577	-0.13134776	-1.5231343	0.24185438	-0.23270828	-0.99197899	0.028404953	-0.095676817	-1.1758034	0.4305943	-0.29855643	-0.94232654	0.45004976	-0.00087544352	-1.1544449	0.38929175	-0.18715082	-0.94899275	0.46117327	-0.12727811	-1.0959167	0.80850653	-0.31652856	-1.0349582	0.85880843	0.063906963	-1.0189008	0.91286588	-0.26236688	-0.9822828	0.94692782	-0.024346184	-1.1953456	0.95150406	-0.10924379	-1.0365945	1.4032793	-0.28417933	-1.0979205	1.3982274	0.031071496	-1.1484299	1.4320966	-0.14377436	-1.0887887	1.0511387	-0.32975652	-1.2596756	1.0996548	0.040336805	-0.85412447	0.96252098	-0.28769746	-1.2386011	0.87147813	0.12955435
66	0.26	-1.4517121	0.067290865	-0.21805076	-0.80089562	0.038712073	-0.089802269	-1.4646777	0.19634352	-0.27364429	-0.93764465	0.051126021	-0.047701787	-1.4362594	0.2017975	-0.19563974	-0.92521691	0.08255798	-0.13130597	-1.5131147	0.24443748	-0.23318767	-0.99199381	0.028401774	-0.095650521	-1.1644255	0.43059851	-0.29942006	-0.94084374	0.45020914	-0.00026801307	-1.1429835	0.38986451	-0.18778512	-0.94691975	0.46134209	-0.12682043	-1.0889804	0.80928676	-0.3161486	-1.0301306	0.85963173	0.064552616	-1.0130598	0.9139991	-0.26207057	-0.97642349	0.94787605	-0.023737732	-1.1899505	0.95229127	-0.10956181	-1.0309366	1.4043259	-0.28372281	-1.0918875	1.3992479	0.031639761	-1.1426572	1.4332612	-0.14319757	-1.0840085	1.0525599	-0.33004271	-1.2527471	1.1000504	0.041209279	-0.85027549	0.961368	-0.28821895	-1.2306011	0.87183372	0.13003672
67	0.264	-1.4405986	0.06990785	-0.21979527	-0.80087332	0.038670832	-0.089817906	-1.4547151	0.19913658	-0.27397381	-0.93764579	0.051134845	-0.047656342	-1.4259665	0.20425264	-0.19608304	-0.9250292	0.082615998	-0.13127411	-1.5031614	0.24668293	-0.2334757	-0.99202308	0.028402287	-0.095632091	-1.1530098	0.43075168	-0.30026809	-0.93947301	0.45029095	0.00032625459	-1.1315534	0.3905836	-0.18835626	-0.94484942	0.46153539	-0.12636903	-1.0820585	0.81011572	-0.31579719	-1.0253005	0.86043638	0.065153777	-1.0068485	0.91528518	-0.26154514	-0.97062475	0.94880897	-0.023088943	-1.1845614	0.95309628	-0.10988051	-1.0253122	1.4053693	-0.28330383	-1.0859128	1.400273	0.032188743	-1.1368969	1.4344277	-0.14262185	-1.0792557	1.0539752	-0.33034619	-1.2457951	1.1004487	0.042187637	-0.84646968	0.96017638	-0.28881881	-1.2224921	0.8721898	0.13053856
68	0.268	-1.4289532	0.072314081	-0.22154434	-0.80086144	0.03863247	-0.089836886	-1.4444838	0.20180402	-0.27422766	-0.9376109	0.051146265	-0.047610253	-1.4155678	0.20664537	-0.19643086	-0.92484991	0.082668526	-0.1312485	-1.4933252	0.2486004	-0.23347128	-0.9920632	0.028406024	-0.095617712	-1.141582	0.43107294	-0.30110439	-0.93815227	0.45031405	0.00093019688	-1.1201136	0.39139475	-0.18889507	-0.94289173	0.4617475	-0.12587064	-1.075168	0.81098966	-0.31545951	-1.0206209	0.86117422	0.06565665	-1.0002531	0.9167213	-0.26077461	-0.96508218	0.94972995	-0.022319652	-1.1791829	0.95393297	-0.11020348	-1.0197157	1.4064032	-0.28291718	-1.0799276	1.4013138	0.032695445	-1.1311249	1.4355998	-0.14191538	-1.0745342	1.0553841	-0.33067265	-1.2387731	1.1008628	0.043356282	-0.84272165	0.9589546	-0.28950049	-1.2142434	0.87257179	0.13107975
69	0.272	-1.4168919	0.07449496	-0.22331954	-0.80085394	0.038597694	-0.089859457	-1.4340082	0.20435886	-0.27442399	-0.93757266	0.051156838	-0.047567289	-1.4048879	0.20901362	-0.19677072	-0.92467758	0.082718285	-0.13122446	-1.4834262	0.25020061	-0.23320754	-0.99210748	0.028410193	-0.095602597	-1.1301594	0.43154775	-0.30191346	-0.93684585	0.45030435	0.0015331884	-1.108636	0.39226973	-0.18942506	-0.94108709	0.46196156	-0.12530434	-1.0683193	0.81190525	-0.31512842	-1.0161057	0.86183485	0.066065818	-0.99354834	0.91824699	-0.25992295	-0.95980036	0.95063042	-0.021427666	-1.173823	0.95479995	-0.11054212	-1.0141331	1.4074271	-0.28255116	-1.0739031	1.4023721	0.033156026	-1.1252968	1.4367793	-0.14088234	-1.069847	1.0567894	-0.33103071	-1.231677	1.1013079	0.044731454	-0.8390573	0.95770877	-0.29027066	-1.2058463	0.87299415	0.13168075
70	0.276	-1.404403	0.076452367	-0.22518149	-0.80084273	0.038570745	-0.089880526	-1.4232797	0.20678565	-0.27459173	-0.93765609	0.051150207	-0.047549115	-1.393986	0.21129523	-0.197101	-0.92452184	0.082768093	-0.13119933	-1.4732888	0.25150579	-0.23274152	-0.99214957	0.028412222	-0.095582628	-1.1187389	0.4321526	-0.30267322	-0.93554733	0.45028534	0.0020914731	-1.0971151	0.39320275	-0.18996192	-0.93935336	0.46215957	-0.12471886	-1.0615026	0.81286949	-0.31481815	-1.0116663	0.86244797	0.066421323	-0.98703933	0.91978536	-0.25916982	-0.95465641	0.95149998	-0.020459607	-1.1684763	0.95568311	-0.11090014	-1.0085545	1.4084494	-0.28219959	-1.0678717	1.4034405	0.033576293	-1.1193968	1.437962	-0.13946583	-1.0651923	1.0581935	-0.33141874	-1.2245806	1.1017753	0.046176961	-0.83548897	0.95643898	-0.29112331	-1.1973197	0.87344503	0.13234748
71	0.28	-1.3914259	0.07819405	-0.22721604	-0.80081945	0.038555947	-0.089889406	-1.4122992	0.20902053	-0.27475513	-0.93806214	0.051101181	-0.047589557	-1.3829588	0.21334563	-0.19738399	-0.92441726	0.082812887	-0.13117367	-1.4629208	0.25252538	-0.23213266	-0.9921862	0.028413552	-0.09555826	-1.107305	0.43287466	-0.30337591	-0.93425651	0.45027006	0.0025943652	-1.0856083	0.39418701	-0.19050176	-0.93758165	0.46233649	-0.12418225	-1.0547041	0.81389397	-0.31453643	-1.0072301	0.86303335	0.066751122	-0.98077957	0.9213193	-0.25853929	-0.949573	0.95233339	-0.019454033	-1.1631091	0.95656875	-0.11125477	-1.0029728	1.4094729	-0.28186491	-1.0618489	1.404508	0.033957803	-1.1134897	1.4391205	-0.13794219	-1.0605682	1.0595954	-0.33183299	-1.2175755	1.102229	0.047507099	-0.83200579	0.95514213	-0.29203785	-1.1886859	0.8739077	0.1330666
72	0.284	-1.3779774	0.079734374	-0.22951686	-0.80078266	0.03855199	-0.08988241	-1.4010786	0.21096648	-0.27492045	-0.93887012	0.051002805	-0.0476977	-1.3717433	0.21502145	-0.19760605	-0.92442001	0.082836446	-0.13115135	-1.4523998	0.25326304	-0.23151401	-0.99221618	0.028417844	-0.095532931	-1.0958535	0.4336968	-0.30402526	-0.93299708	0.45024672	0.0030941736	-1.0742075	0.39520179	-0.19101355	-0.93572826	0.4624933	-0.12371475	-1.0479343	0.81498625	-0.31427061	-1.0027868	0.8635808	0.067062472	-0.97465641	0.92286427	-0.25796765	-0.94456011	0.95312837	-0.018420015	-1.157662	0.95745327	-0.11155058	-0.9973759	1.4104889	-0.28154399	-1.0558377	1.40557	0.0343078	-1.1076793	1.4402163	-0.13672491	-1.0559747	1.060994	-0.33227312	-1.2106901	1.1026414	0.048664461	-0.82859851	0.953817	-0.29299832	-1.1799769	0.87437995	0.13381473
